<?xml version="1.0" encoding="UTF-8" standalone="no"?>
<!-- Created with Inkscape (http://www.inkscape.org/) -->

<svg
   width="251.35417mm"
   height="251.35336mm"
   viewBox="0 0 251.35418 251.35336"
   version="1.1"
   id="svg1"
   xml:space="preserve"
   inkscape:version="1.3 (0e150ed6c4, 2023-07-21)"
   sodipodi:docname="Hitachi 1968.svg"
   xmlns:inkscape="http://www.inkscape.org/namespaces/inkscape"
   xmlns:sodipodi="http://sodipodi.sourceforge.net/DTD/sodipodi-0.dtd"
   xmlns="http://www.w3.org/2000/svg"
   xmlns:svg="http://www.w3.org/2000/svg"><sodipodi:namedview
     id="namedview1"
     pagecolor="#ffffff"
     bordercolor="#000000"
     borderopacity="0.25"
     inkscape:showpageshadow="2"
     inkscape:pageopacity="0.0"
     inkscape:pagecheckerboard="0"
     inkscape:deskcolor="#d1d1d1"
     inkscape:document-units="mm"
     showguides="true"
     inkscape:zoom="0.87692477"
     inkscape:cx="484.07801"
     inkscape:cy="126.00853"
     inkscape:window-width="1575"
     inkscape:window-height="849"
     inkscape:window-x="174"
     inkscape:window-y="96"
     inkscape:window-maximized="0"
     inkscape:current-layer="layer1" /><defs
     id="defs1" /><g
     inkscape:label="Layer 1"
     inkscape:groupmode="layer"
     id="layer1"
     transform="translate(-12.701857,-98.29982)"><path
       id="path248"
       style="fill:#000000;fill-opacity:1;stroke-width:0.392197;stroke-linejoin:bevel;paint-order:stroke fill markers"
       d="m 138.37886,98.29982 c -0.0269,13.78353 -9.49918,25.83094 -22.9107,29.01133 -36.549897,8.66826 -65.097002,37.19169 -73.765119,73.74132 -3.180625,13.41165 -15.217674,22.89065 -29.001184,22.92398 13.78351,0.0356 25.820559,9.51268 29.001184,22.9243 8.668117,36.54962 37.215222,65.07289 73.765119,73.74109 13.41152,3.18062 22.87744,15.22786 22.9107,29.01135 0.0269,-13.78349 9.49932,-25.83073 22.91096,-29.01135 36.54988,-8.6684 65.09699,-37.19147 73.76497,-73.74109 3.18077,-13.41162 15.21781,-22.8909 29.00123,-22.9243 -13.78342,-0.0356 -25.82046,-9.51233 -29.00123,-22.92398 -8.66798,-36.54963 -37.21509,-65.07306 -73.76497,-73.74132 -13.41164,-3.18056 -22.87758,-15.22794 -22.91096,-29.01133 z m -9.93615,46.83308 v 19.23033 H 85.832323 c 11.66858,-10.29324 26.376427,-17.20449 42.610387,-19.23033 z m 19.87133,0 c 16.23456,2.02581 30.94277,8.93687 42.61149,19.23033 h -42.61149 z m -78.760939,39.1014 h 24.476842 c -9.806287,10.91722 -15.264477,25.06748 -15.264609,39.74215 -1.16e-4,14.67529 5.458068,28.82602 15.264609,39.74355 h -24.47571 c -6.768047,-11.69437 -10.660978,-25.26016 -10.661115,-39.74355 1.37e-4,-14.48277 3.892579,-28.04822 10.659983,-39.74215 z m 68.825759,0 c 21.9491,0 39.74217,17.79333 39.74256,39.74215 2.6e-4,21.94933 -17.79309,39.74333 -39.74256,39.74355 -21.94934,0 -39.742664,-17.79422 -39.742307,-39.74355 2.41e-4,-21.94882 17.793327,-39.74215 39.742307,-39.74215 z m 44.35018,0 h 24.47571 c 6.76741,11.69398 10.65997,25.25938 10.6601,39.74215 -1.3e-4,14.48339 -3.89318,28.04918 -10.6611,39.74355 h -24.40182 c 9.78025,-10.9282 15.20197,-25.07813 15.19169,-39.74355 -0.0103,-14.6743 -5.45831,-28.82493 -15.26458,-39.74215 z m -44.35018,19.87089 c -10.97492,-2.6e-4 -19.87197,8.89642 -19.87222,19.87126 -2.5e-4,10.97532 8.89692,19.87249 19.87222,19.87204 10.97505,-5e-5 19.87158,-8.8973 19.87136,-19.87204 -2.7e-4,-10.97439 -8.8968,-19.87076 -19.87136,-19.87126 z M 85.833315,283.59112 H 190.92467 c -14.00993,12.35778 -32.39554,19.86998 -52.54581,19.86984 -20.15003,1.4e-4 -38.535632,-7.51206 -52.545545,-19.86984 z"
       sodipodi:nodetypes="csscsscsscsscccccccccccsccccssssscccccscssssscccc"
       inkscape:export-filename="Hitachi symbol.svg"
       inkscape:export-xdpi="425.74234"
       inkscape:export-ydpi="425.74234" /></g></svg>
