<svg xmlns="http://www.w3.org/2000/svg" width="1138" height="148" viewBox="0 0 1138 148" font-family="Segoe UI, system-ui, sans-serif">
  <defs>
    <marker id="arrow" viewBox="0 0 10 10" refX="8" refY="5" markerWidth="7" markerHeight="7" orient="auto-start-reverse">
      <path d="M0,0 L10,5 L0,10 z" fill="#7c8a99"/>
    </marker>
  </defs>
  <rect x="0" y="0" width="1138" height="148" fill="#f6f9fd"/>
  <text x="24" y="26" font-size="16" font-weight="700" fill="#0b3a6b">Record to report — End-to-End Flow</text>
  <text x="24" y="42" font-size="11" fill="#5b6b7a">BPC 90.00 · synthetic Contoso process flow</text>
  <line x1="178" y1="94" x2="206" y2="94" stroke="#7c8a99" stroke-width="2" marker-end="url(#arrow)"/><line x1="366" y1="94" x2="394" y2="94" stroke="#7c8a99" stroke-width="2" marker-end="url(#arrow)"/><line x1="554" y1="94" x2="582" y2="94" stroke="#7c8a99" stroke-width="2" marker-end="url(#arrow)"/><line x1="742" y1="94" x2="770" y2="94" stroke="#7c8a99" stroke-width="2" marker-end="url(#arrow)"/><line x1="930" y1="94" x2="958" y2="94" stroke="#7c8a99" stroke-width="2" marker-end="url(#arrow)"/>
  <rect x="24" y="64" width="150" height="60" rx="8" fill="#eef4fb" stroke="#0b5cab" stroke-width="1.5"/><circle cx="38" cy="78" r="9" fill="#0b5cab"/><text x="38" y="82" text-anchor="middle" font-size="11" font-weight="700" fill="#fff">1</text><text x="99" y="90" text-anchor="middle" font-size="13" font-weight="600" fill="#0b3a6b">Define accounting</text><text x="99" y="106" text-anchor="middle" font-size="13" font-weight="600" fill="#0b3a6b">policies</text><rect x="212" y="64" width="150" height="60" rx="8" fill="#dceaf6" stroke="#0b5cab" stroke-width="1.5"/><circle cx="226" cy="78" r="9" fill="#0b5cab"/><text x="226" y="82" text-anchor="middle" font-size="11" font-weight="700" fill="#fff">2</text><text x="287" y="98" text-anchor="middle" font-size="13" font-weight="600" fill="#0b3a6b">Manage cash</text><rect x="400" y="64" width="150" height="60" rx="8" fill="#eef4fb" stroke="#0b5cab" stroke-width="1.5"/><circle cx="414" cy="78" r="9" fill="#0b5cab"/><text x="414" y="82" text-anchor="middle" font-size="11" font-weight="700" fill="#fff">3</text><text x="475" y="98" text-anchor="middle" font-size="13" font-weight="600" fill="#0b3a6b">Manage budgets</text><rect x="588" y="64" width="150" height="60" rx="8" fill="#dceaf6" stroke="#0b5cab" stroke-width="1.5"/><circle cx="602" cy="78" r="9" fill="#0b5cab"/><text x="602" y="82" text-anchor="middle" font-size="11" font-weight="700" fill="#fff">4</text><text x="663" y="90" text-anchor="middle" font-size="13" font-weight="600" fill="#0b3a6b">Record financial</text><text x="663" y="106" text-anchor="middle" font-size="13" font-weight="600" fill="#0b3a6b">transactions</text><rect x="776" y="64" width="150" height="60" rx="8" fill="#eef4fb" stroke="#0b5cab" stroke-width="1.5"/><circle cx="790" cy="78" r="9" fill="#0b5cab"/><text x="790" y="82" text-anchor="middle" font-size="11" font-weight="700" fill="#fff">5</text><text x="851" y="90" text-anchor="middle" font-size="13" font-weight="600" fill="#0b3a6b">Close financial</text><text x="851" y="106" text-anchor="middle" font-size="13" font-weight="600" fill="#0b3a6b">periods</text><rect x="964" y="64" width="150" height="60" rx="8" fill="#dceaf6" stroke="#0b5cab" stroke-width="1.5"/><circle cx="978" cy="78" r="9" fill="#0b5cab"/><text x="978" y="82" text-anchor="middle" font-size="11" font-weight="700" fill="#fff">6</text><text x="1039" y="90" text-anchor="middle" font-size="13" font-weight="600" fill="#0b3a6b">Analyze financial</text><text x="1039" y="106" text-anchor="middle" font-size="13" font-weight="600" fill="#0b3a6b">performance</text>
</svg>
